<?xml version="1.0" standalone="no"?>
<svg version="1.0" xmlns="http://www.w3.org/2000/svg"
viewBox="0 0 1000.000000 1000.000000"
 preserveAspectRatio="xMidYMid meet">

<g transform="translate(0.000000,1000.000000) scale(0.10,-0.10)"
fill="#fcc920" stroke="none">
<path d="M2547 8669 l-2457 -1229 0 -2454 0 -2454 2458 -1233 2457 -1232 2455
1230 2455 1229 3 2457 2 2457 -2457 1229 -2458 1229 -2458 -1229z m3963 -639
l1495 -748 -35 -15 c-19 -8 -699 -274 -1512 -592 l-1476 -578 -1474 589 c-810
323 -1477 591 -1482 595 -8 7 2957 1498 2979 1498 6 0 683 -337 1505 -749z
m-3670 -2153 l1735 -693 3 -1892 2 -1892 -1745 872 -1745 873 0 1712 c0 942 3
1713 8 1713 4 0 788 -312 1742 -693z m6080 -1025 l0 -1707 -1665 -833 c-916
-457 -1667 -832 -1670 -832 -3 0 -5 850 -5 1889 l0 1889 158 62 c86 34 832
326 1657 649 825 324 1506 589 1513 590 9 1 12 -347 12 -1707z"/>
</g>
</svg>
