<?xml version="1.0" standalone="no"?>
<!DOCTYPE svg PUBLIC "-//W3C//DTD SVG 20010904//EN"
 "http://www.w3.org/TR/2001/REC-SVG-20010904/DTD/svg10.dtd">
<svg version="1.0" xmlns="http://www.w3.org/2000/svg"
 width="1000.000000pt" height="1000.000000pt" viewBox="0 0 1000.000000 1000.000000"
 preserveAspectRatio="xMidYMid meet">

<g transform="translate(0.000000,1000.000000) scale(0.100000,-0.100000)"
fill="#000000" stroke="none">
<path d="M4735 9894 c-1431 -91 -2688 -743 -3582 -1857 -878 -1094 -1242
-2568 -977 -3967 380 -2013 1988 -3592 4001 -3929 318 -53 475 -66 828 -66
353 0 510 13 828 66 1578 264 2955 1316 3628 2769 871 1882 481 4086 -982
5549 -806 806 -1831 1293 -2979 1416 -138 15 -635 27 -765 19z m740 -838 c937
-115 1765 -517 2426 -1176 657 -656 1058 -1484 1175 -2430 26 -206 26 -724 0
-930 -117 -945 -517 -1772 -1175 -2431 -659 -658 -1486 -1058 -2431 -1175
-206 -26 -724 -26 -930 0 -945 117 -1772 517 -2431 1175 -658 659 -1058 1486
-1175 2431 -26 206 -26 724 0 930 61 493 185 913 397 1345 617 1259 1868 2129
3254 2265 61 5 128 12 150 14 99 10 618 -3 740 -18z"/>
<path d="M2697 7413 c-107 -327 -182 -647 -231 -993 -36 -254 -46 -376 -53
-645 -21 -900 204 -1689 657 -2294 399 -534 972 -923 1672 -1135 107 -32 367
-91 373 -84 6 6 -102 635 -144 842 -88 431 -183 794 -286 1096 -137 396 -380
896 -660 1355 -50 83 -99 164 -109 180 -31 51 186 -178 271 -287 187 -240 359
-519 534 -868 95 -189 231 -494 270 -602 7 -21 16 -38 19 -38 3 0 19 53 34
118 46 188 133 475 180 593 70 175 171 320 413 596 65 74 119 139 121 144 5
13 -73 192 -134 306 -119 223 -246 392 -426 569 -415 408 -825 674 -1453 942
-388 166 -958 402 -971 402 -7 0 -38 -79 -77 -197z"/>
<path d="M7085 6176 c-436 -232 -870 -557 -1205 -902 -163 -167 -243 -266
-361 -443 -153 -230 -253 -461 -305 -705 -23 -108 -27 -151 -31 -399 -8 -398
16 -634 91 -930 51 -198 141 -425 200 -502 13 -18 16 -19 28 -4 193 239 544
751 703 1024 251 430 422 828 499 1160 21 90 25 99 20 50 -27 -285 -104 -648
-194 -910 -115 -334 -397 -793 -747 -1213 -52 -61 -89 -112 -84 -112 24 0 317
103 431 151 768 325 1262 816 1401 1394 65 274 81 772 34 1140 -37 294 -122
642 -221 905 -42 113 -148 350 -156 350 -2 0 -48 -24 -103 -54z"/>
</g>
</svg>
